<svg xmlns="http://www.w3.org/2000/svg" width="490" height="215" fill="none" viewBox="0 0 490 215">
  <path fill="#2934DA" d="M132.4.935c-3.2 1.44-5.84 4.48-6.8 7.76-.48 1.52-.8 7.12-.8 12.48v9.84H67.44c-56.24 0-57.36 0-60.72 1.68-2.48 1.2-3.84 2.56-5.04 5.04C0 41.015 0 42.215 0 95.015s0 54 1.68 57.28c1.2 2.48 2.56 3.84 5.04 5.04 3.28 1.6 4.72 1.68 37.52 1.68H78.4v31.2H54.64c-22.64 0-23.92.08-27.28 1.68-3.76 1.84-6.56 6.24-6.56 10.32s2.8 8.48 6.56 10.32l3.6 1.68 106.88-.16c106.48-.24 106.88-.24 109.04-1.92 1.2-.88 2.96-2.64 3.84-3.84 1.68-2.16 1.68-2.48 1.68-101.28s0-99.12-1.68-101.28c-.88-1.2-2.64-2.96-3.84-3.84-2.16-1.68-3.04-1.68-57.12-1.84-44.64-.16-55.44 0-57.36.88Zm110.96 8.24c1.36 1.2 1.44 5.28 1.44 97.36 0 85.68-.16 96.32-1.28 97.92-1.2 1.76-1.28 1.76-26.32 1.76h-25.12l.48-2.72c.72-4.32-2.24-9.6-6.48-11.6-3.2-1.6-4.8-1.68-27.12-1.68H135.2v-31.2h34.56c33.2 0 34.64-.08 37.92-1.68 2.48-1.2 3.84-2.56 5.04-5.04 1.68-3.28 1.68-4.48 1.68-57.28s0-54-1.68-57.28c-1.2-2.48-2.56-3.84-5.04-5.04-3.28-1.6-4.64-1.68-39.12-1.68H132.8v-9.84c0-7.6.32-10.24 1.28-11.6l1.2-1.76h53.28c48.48 0 53.44.08 54.8 1.36Zm-38.4 31.2c1.36 1.2 1.44 4 1.44 54.48 0 48.4-.08 53.36-1.36 54.72-1.2 1.36-5.28 1.44-97.68 1.44-88.64 0-96.56-.08-97.92-1.36-1.36-1.2-1.44-4-1.44-54.48 0-48.4.08-53.36 1.36-54.72 1.2-1.36 5.28-1.44 97.68-1.44 88.64 0 96.56.08 97.92 1.36Zm-77.76 133.28c0 10.32-.32 14.96-.96 15.6-1.36 1.36-37.52 1.36-38.88 0-.64-.64-.96-5.28-.96-15.6v-14.64h40.8v14.64Zm56.16 25.92c1.76 1.6 1.84 3.28.08 5.2-1.2 1.36-4.64 1.44-76.48 1.44-68.88 0-75.36-.08-76.72-1.36-1.76-1.6-1.84-3.28-.08-5.2 1.2-1.36 4.64-1.44 76.48-1.44 68.88 0 75.36.08 76.72 1.36Z"/>
  <path fill="#2934DA" d="M222.56 20.375c-5.28 2.56-6.24 8.8-2.08 12.64 7.28 6.8 20.16-.24 16.08-8.72-2.24-4.72-8.72-6.56-14-3.92Zm-80.16 163.44c0 1.6.56 1.6 46.8 1.6 46.24 0 46.8 0 46.8-1.6s-.56-1.6-46.8-1.6c-46.24 0-46.8 0-46.8 1.6ZM12 94.615v51.6h190.4v-103.2H12v51.6Zm186.4 0v47.6H16v-95.2h182.4v47.6Z"/>
  <path fill="#2934DA" d="M66.16 66.375c-1.28.96-9.36 29.2-9.36 32.64 0 2.16 2.56 3.6 9.84 5.52 7.44 2 8.4 2.08 10.24.4 1.28-1.12 2.16-.56 11.36 7.12 13.44 11.28 13.36 11.28 18.32 10.8 2.8-.32 5.04-.08 6.72.8 3.12 1.44 6.4.8 7.12-1.44.32-1.04 1.2-1.6 2.48-1.6 1.92 0 5.12-2.48 5.12-4 0-.4.8-.8 1.84-.8 3.28 0 5.36-2.16 5.36-5.6 0-3.52 1.12-4.24 4.08-2.48 2 1.12 2.56 1.04 9.52-1.92 7.68-3.36 8.8-4.16 8.96-6.56.16-2.24-12.24-29.84-14-31.04-1.28-.88-2-.88-4.48 0-7.44 2.64-13.44 5.92-13.84 7.44-.4 1.52-.56 1.52-7.52-.4-6.64-1.76-8-1.84-19.28-1.36l-12.24.48-.72-2c-1.04-2.56-1.28-2.72-9.52-5.04-8.08-2.24-8.24-2.24-10-.96Zm50.08 11.36c4.24 1.12 8.32 2.32 9.04 2.72.72.4 3.44 5.68 6.08 11.76 4.08 9.68 4.56 11.2 3.52 12.24-1.2 1.2-.56 1.84-14.4-13.2-4.96-5.36-9.44-7.28-13.36-5.6-1.52.64-4.16 2.08-5.92 3.28-3.76 2.56-6.08 2.4-7.12-.48-.56-1.68-.32-3.04 1.6-6.8 2-4.08 2.64-4.72 5.12-5.12 5.2-.96 7.76-.72 15.44 1.2Zm-21.84-.96c0 .16-.72 2.16-1.6 4.48-1.92 4.96-2 8-.4 10.32 2.24 3.2 4.88 3.04 10.96-.64 5.28-3.2 5.68-3.28 8.56-2.4 2.32.64 4.96 2.88 10.64 9.12 8.64 9.28 10.64 12.08 9.92 13.76-.24.64-1.44 1.2-2.64 1.2-1.68 0-3.68-1.44-8.32-6.08-4.64-4.64-6.56-6-7.6-5.6-1.2.48-.4 1.6 4.64 6.72 6.8 6.96 7.68 8.56 5.52 9.76-1.76.88-3.68-.4-10.24-6.64-3.12-2.96-4.48-3.84-5.6-3.36-1.2.48-.56 1.36 4.48 6 4 3.76 5.76 5.92 5.44 6.72-.88 2.24-3.36 1.36-8.08-2.8-3.2-2.96-4.8-3.92-5.44-3.28-.56.56-.24 1.44 1.28 2.96 2.4 2.4 2.08 3.6-.96 3.6-1.6 0-5.28-2.64-13.76-9.68-6.4-5.36-11.76-9.84-11.92-10-.56-.48 5.84-23.12 6.72-23.68.72-.56 8.4-.96 8.4-.48Zm356 92.24c0 3.76-.16 6.8-.4 6.8-.32 0-1.6-.56-2.96-1.28-2.88-1.44-6.96-1.12-10 .88-3.36 2.24-5.28 7.84-4.88 14 .64 8.48 4.24 12.88 10.56 12.96 1.92.08 4.24-.48 5.52-1.36 1.92-1.2 2.16-1.28 2.16-.08 0 .96.8 1.28 3.2 1.28h3.2v-40h-6.4v6.8Zm-1.6 11.6c1.28 1.28 1.6 2.64 1.6 7.52 0 6.4-.8 8.08-4.48 8.96-2.4.64-5.68-1.44-6.72-4.16-1.68-4.24-.48-10.88 2.16-12.96 2-1.44 5.6-1.2 7.44.64Zm-67.52-16.56c-1.68 1.28-1.44 4.4.4 5.6.72.4 2.24.56 3.36.24 3.76-.96 2.32-6.88-1.6-6.88-.4 0-1.36.48-2.16 1.04Zm-111.68 2.96v2.32l5.84.24 5.76.24.24 16.16.16 16.24h6.4l.16-16.24.24-16.16 5.84-.24 5.76-.24v-4.72h-30.4v2.4Zm36-.08c0 2.24.16 2.4 3.84 2.64l3.76.24.24 13.36.16 13.44h-8v5.6H328v-5.6h-8l.16-13.44.24-13.36 3.84-.24c3.6-.24 3.76-.4 3.76-2.64v-2.32h-22.4v2.32Zm37.84 7.36c-2.64.8-6.64 4.88-6.64 6.8 0 2.08 5.28 1.36 7.6-.96 1.68-1.68 2.56-2 4.64-1.6 2.96.56 4.56 2.4 4.56 5.04 0 1.68-.32 1.84-4.8 1.84-6.08 0-9.92 1.6-11.52 4.72-1.6 2.96-1.6 5.12-.08 8 2.08 4.08 10.16 5.68 14.48 2.88 1.76-1.12 2-1.12 2.4 0 .32.8 1.6 1.2 4 1.2 3.44 0 3.44-.08 2.72-2.08-.48-1.12-.8-6.08-.8-11.12 0-8.56-.08-9.2-2.08-11.52-3.04-3.6-8.72-4.88-14.48-3.2Zm10.16 17.84c0 3.2-1.2 4.4-5.12 5.04-2.16.32-3.36.08-4.48-.96-3.52-3.2-.48-6.8 5.6-6.8h4v2.72Zm117.84-17.84c-2.64.8-6.64 4.88-6.64 6.8 0 2.08 5.28 1.36 7.6-.96 1.68-1.68 2.56-2 4.64-1.6 2.96.56 4.56 2.4 4.56 5.04 0 1.68-.32 1.84-4.8 1.84-6.08 0-9.92 1.6-11.52 4.72-1.6 2.96-1.6 5.12-.08 8 2.08 4.08 10.16 5.68 14.48 2.88 1.76-1.12 2-1.12 2.4 0 .32.8 1.6 1.2 4 1.2 3.44 0 3.44-.08 2.72-2.08-.48-1.12-.8-6.08-.8-11.12 0-8.56-.08-9.2-2.08-11.52-3.04-3.6-8.72-4.88-14.48-3.2Zm10.16 17.84c0 3.2-1.2 4.4-5.12 5.04-2.16.32-3.36.08-4.48-.96-3.52-3.2-.48-6.8 5.6-6.8h4v2.72Zm-108.8-15.12v2.8h8v11.76c0 14.48-.48 15.76-5.76 16.08-3.2.24-3.76.48-4.16 2.24-.32 1.12-.32 2.32-.08 2.72.88 1.44 8.64.88 11.36-.8 4.64-2.8 5.04-4.56 5.04-22v-15.6h-14.4v2.8Zm28.08 6.96c0 5.44.4 11.04.96 12.56 2 5.68 9.2 7.84 14.08 4.24 2.96-2.16 3.28-2.16 3.28-.16 0 1.28.56 1.6 2.8 1.6h2.8v-28h-6.4v10.32c0 9.84-.08 10.48-1.76 11.6-2.24 1.6-5.44 1.6-7.52.16-1.36-1.04-1.52-2.4-1.84-11.6l-.24-10.48h-6.24l.08 9.76Z"/>
</svg>
