<svg xmlns="http://www.w3.org/2000/svg" width="3370" height="2857" fill="none" viewBox="0 0 3370 2857">
  <path fill="#2934DA" d="M1765.33 12.465c-42.66 19.2-77.86 59.734-90.66 103.467-6.4 20.267-10.67 94.933-10.67 166.4v131.2H899.2c-749.867 0-764.8 0-809.6 22.4-33.067 16-51.2 34.133-67.2 67.2C0 546.865 0 562.865 0 1266.87c0 704 0 720 22.4 763.73 16 33.07 34.133 51.2 67.2 67.2 43.733 21.33 62.933 22.4 500.267 22.4h455.463v416H728.533c-301.866 0-318.933 1.07-363.733 22.4-51.2 25.6-86.4 83.2-87.467 140.8 0 52.27 37.334 109.87 88.534 134.4l45.866 22.4H1821.87c969.6 0 1417.6-3.2 1438.93-11.73 51.2-19.2 86.4-61.87 99.2-120.54 8.53-38.4 10.67-436.26 8.53-1336.53-3.2-1275.735-3.2-1282.135-25.6-1310.935-11.73-16-35.2-39.466-51.2-51.2-28.8-22.4-40.53-22.4-761.6-24.533-595.2-2.133-739.2 0-764.8 11.733ZM3244.8 122.332c18.13 16 19.2 70.4 19.2 1298.138 0 1142.4-2.13 1284.26-17.07 1305.6-16 23.46-17.06 23.46-350.93 23.46h-334.93l6.4-36.26c9.6-57.6-29.87-128-86.4-154.67-42.67-21.33-64-22.4-361.6-22.4h-316.8v-416h460.8c442.66 0 461.86-1.07 505.6-22.4 33.06-16 51.2-34.13 67.2-67.2 22.4-43.73 22.4-59.73 22.4-763.73 0-704.005 0-720.005-22.4-763.738-16-33.067-34.14-51.2-67.2-67.2-43.74-21.333-61.87-22.4-521.6-22.4h-476.8v-131.2c0-101.333 4.26-136.533 17.06-154.667l16-23.466h710.4c646.4 0 712.54 1.066 730.67 18.133Zm-512 416c18.13 16 19.2 53.333 19.2 726.398 0 645.34-1.07 711.47-18.13 729.6-16 18.14-70.4 19.2-1302.4 19.2-1181.87 0-1287.47-1.06-1305.603-18.13-18.134-16-19.2-53.33-19.2-729.6 0-633.601 2.133-713.601 17.066-728.535 14.934-14.933 147.2-17.066 1302.397-17.066 1182.94 0 1288.54 1.066 1306.67 18.133ZM1696 2315.4c0 137.6-4.27 199.47-12.8 208-18.13 18.13-500.27 18.13-518.4 0-8.53-8.53-12.8-70.4-12.8-208v-195.2h544v195.2Zm750.93 344.53c22.4 21.34 21.34 45.87-1.06 70.4-16 18.14-61.87 19.2-1022.94 19.2-900.263 0-1006.93-2.13-1021.863-17.06-22.4-21.34-21.334-45.87 1.066-70.4 16-18.14 61.867-19.2 1022.937-19.2 900.26 0 1006.93 2.13 1021.86 17.06Z"/>
  <path fill="#2934DA" d="M2967.47 271.665c-70.4 34.133-83.2 117.333-27.74 168.533 97.07 90.667 268.8-3.2 214.4-116.266-29.86-62.934-116.26-87.467-186.66-52.267ZM1898.67 2450.87c0 21.33 7.46 21.33 624 21.33 616.53 0 624 0 624-21.33 0-21.34-7.47-21.34-624-21.34-616.54 0-624 0-624 21.34ZM160 1261.53v688h2538.67V573.532H160v687.998Zm2485.33 0v634.67H213.333V626.865H2645.33v634.665Z"/>
  <path fill="#2934DA" d="M882.133 884.999c-17.066 12.8-124.8 389.331-124.8 435.201 0 28.8 34.134 48 131.2 73.6 99.2 26.67 111.997 27.73 136.537 5.33 18.13-16 27.73-9.6 152.53 96 179.2 150.4 177.07 149.34 244.27 141.87 37.33-3.2 65.06-1.07 82.13 9.6 40.53 21.33 70.4 18.13 93.87-11.73 11.73-14.94 30.93-26.67 43.73-26.67 22.4 0 65.07-34.13 65.07-52.27 0-5.33 14.93-11.73 34.13-16 48-9.6 61.87-25.6 61.87-70.4 0-46.93 14.93-56.53 54.4-33.06 26.66 14.93 34.13 13.86 126.93-25.6 102.4-44.8 117.33-55.47 119.47-87.47 2.13-30.93-163.2-397.868-186.67-413.868-17.07-11.733-26.67-11.733-59.73 0-99.2 35.2-179.2 78.933-184.54 99.198-5.33 20.27-7.46 20.27-100.26-5.33-88.54-23.468-106.67-24.535-257.07-18.135l-163.2 6.4-9.6-26.666c-13.87-34.134-17.07-36.267-126.93-67.2-107.737-29.867-109.87-29.867-133.337-12.8ZM1558.4 1038.6c60.8 14.93 116.27 33.07 122.67 39.47 6.4 7.46 39.46 76.8 72.53 155.73 54.4 128 58.67 145.07 44.8 160-14.93 13.87-23.47 7.47-83.2-58.67-138.67-152.53-164.27-176-204.8-189.86-51.2-18.14-89.6-8.54-152.53 37.33-54.4 38.4-89.6 37.33-103.47-3.2-7.47-22.4-4.27-40.53 21.33-90.67 26.67-54.4 35.2-62.93 68.27-68.26 69.33-12.8 103.47-9.6 214.4 18.13Zm-299.73-14.93c0 2.13-9.6 28.8-21.34 59.73-25.6 66.13-26.66 106.67-5.33 137.6 29.87 41.6 65.07 40.53 142.93-7.47 39.47-23.46 80-42.66 90.67-42.66 38.4 0 82.13 35.2 192 156.8 121.6 134.4 136.53 165.33 76.8 171.73-26.67 3.2-43.73-8.53-114.13-78.93-60.8-60.8-87.47-80-101.34-74.67-14.93 5.33-2.13 23.47 68.27 96 48 49.07 87.47 93.87 87.47 100.27 0 6.4-9.6 17.06-20.27 22.4-23.47 12.8-49.07-3.2-136.53-87.47-41.6-39.47-59.74-51.2-74.67-44.8-16 6.4-7.47 18.13 59.73 80 78.94 73.6 92.8 106.67 44.8 106.67-21.33 0-23.46-1.07-94.93-69.34-33.07-30.93-48-38.4-56.53-29.86-9.6 9.6-4.27 20.26 21.33 43.73 28.8 26.67 32 32 17.07 38.4-43.74 16-69.34 2.13-218.67-122.67-85.33-70.4-155.73-133.33-157.87-138.66-2.13-5.34 8.54-51.2 23.47-102.4 14.93-52.27 32-117.34 38.4-147.2 6.4-28.8 17.07-56.54 24.53-60.8 11.74-7.47 114.14-12.8 114.14-6.4Z"/>
</svg>
